<?xml version="1.0" encoding="UTF-8"?>
<svg id="Layer_1" xmlns="http://www.w3.org/2000/svg" version="1.1" viewBox="0 0 535.6 545">
  <!-- Generator: Adobe Illustrator 29.0.1, SVG Export Plug-In . SVG Version: 2.1.0 Build 192)  -->
  <defs>
    <style>
      .st0 {
        fill: #fa6060;
      }
    </style>
  </defs>
  <path class="st0" d="M271.8,512c37.1-.1,73.7-8.8,107-25.4,33.2-16.6,62.2-40.6,84.6-70.3,25.6-34.9,39.6-77.1,39.8-120.4v-27.8c0-4.8-.9-9.6-2.7-14.1-1.8-4.5-4.5-8.5-8-11.9l-75.8-76c-3.8-3.8-8.4-6.7-13.4-8.6-5.1-1.8-10.4-2.5-15.8-2-8.9,1-17.2,5-23.4,11.5l-75.2,75.2c-3.4,3.4-6.1,7.4-7.9,11.9-1.8,4.4-2.8,9.2-2.7,14v38.4c0,6.8,2.7,13.2,7.5,18,4.8,4.8,11.3,7.5,18,7.5h6.6c5.6,0,11-2.2,15-6.2,4-4,6.2-9.4,6.2-15v-34.3l57.6-57.6,57.6,57.6v9.4c.2,24.1-4.8,47.9-14.8,69.8-10,21.9-24.7,41.3-43,56.9-32.7,27.3-74,42.4-116.6,42.5h-2.3c-94.6-1.1-175.6-78.4-180.5-172.8-1.4-24.8,2.3-49.6,10.8-72.9,8.5-23.3,21.7-44.7,38.8-62.7,17.1-18,37.7-32.4,60.5-42.2,22.8-9.8,47.4-14.8,72.2-14.7h7.2c5.6,0,11-2.2,15-6.2,4-4,6.2-9.4,6.2-15v-10.1c0-6.8-2.7-13.2-7.4-18-4.8-4.8-11.2-7.5-18-7.5h-4.5c-47.7.2-94.2,14.7-133.5,41.6-39.4,26.9-69.8,64.9-87.4,109.2-17.6,44.3-21.5,92.8-11.3,139.4,10.2,46.6,34.1,89,68.6,121.9,43.8,42.3,102.1,66.2,163,66.9h2.2Z"/>
</svg>